<svg xmlns="http://www.w3.org/2000/svg" viewBox="0 0 1280 420" role="img" aria-labelledby="super-midsize-title super-midsize-desc">
  <title id="super-midsize-title">Representative Challenger 350 cabin plan</title>
  <desc id="super-midsize-desc">Typical two representative cabin zones with approximately 10 passenger positions. Configuration varies by aircraft.</desc>
  <rect width="1280" height="420" fill="#090909"/>
  <g fill="none" stroke="#b99a4a" stroke-width="2">
    <path d="M82 210C82 112 145 48 246 48h788c101 0 164 64 164 162s-63 162-164 162H246C145 372 82 308 82 210Z"/>
    <path d="M155 210h970" opacity=".34"/>
    <path d="M188 70v280M1092 70v280" opacity=".5"/>
  </g>
  <g fill="none" stroke="#d9d1c3" stroke-width="2">
      <g transform="translate(250 0)">
        <rect x="-34" y="76" width="52" height="64" rx="14"/>
        <path d="M-25 88h34M-25 127h34"/>
        <rect x="-34" y="260" width="52" height="64" rx="14"/>
        <path d="M-25 272h34M-25 311h34"/>
      </g>
      <g transform="translate(445 0)">
        <rect x="-34" y="76" width="52" height="64" rx="14"/>
        <path d="M-25 88h34M-25 127h34"/>
        <rect x="-34" y="260" width="52" height="64" rx="14"/>
        <path d="M-25 272h34M-25 311h34"/>
      </g>
      <g transform="translate(640 0)">
        <rect x="-34" y="76" width="52" height="64" rx="14"/>
        <path d="M-25 88h34M-25 127h34"/>
        <rect x="-34" y="260" width="52" height="64" rx="14"/>
        <path d="M-25 272h34M-25 311h34"/>
      </g>
      <g transform="translate(835 0)">
        <rect x="-34" y="76" width="52" height="64" rx="14"/>
        <path d="M-25 88h34M-25 127h34"/>
        <rect x="-34" y="260" width="52" height="64" rx="14"/>
        <path d="M-25 272h34M-25 311h34"/>
      </g>
      <g transform="translate(1030 0)">
        <rect x="-34" y="76" width="52" height="64" rx="14"/>
        <path d="M-25 88h34M-25 127h34"/>
        <rect x="-34" y="260" width="52" height="64" rx="14"/>
        <path d="M-25 272h34M-25 311h34"/>
      </g></g>
  <g font-family="Arial, sans-serif" fill="#d9d1c3">
    <text x="92" y="28" font-size="14" letter-spacing="3">REPRESENTATIVE / TYPICAL CONFIGURATION</text>
    <text x="1188" y="28" text-anchor="end" font-size="14">CHALLENGER 350</text>
    <text x="640" y="404" text-anchor="middle" font-size="13" fill="#8e887f">Two representative cabin zones · configuration varies by aircraft</text>
  </g>
</svg>